<svg height="25" viewBox="0 0 86 25" width="86" xmlns="http://www.w3.org/2000/svg" xmlns:xlink="http://www.w3.org/1999/xlink"><mask id="a" fill="#fff"><path d="m0 0h8.47217577v7.59454652h-8.47217577z" fill="#fff" fill-rule="evenodd"/></mask><mask id="b" fill="#fff"><path d="m0 0h8.47219926v7.59485335h-8.47219926z" fill="#fff" fill-rule="evenodd"/></mask><mask id="c" fill="#fff"><path d="m0 0h8.47149446v7.59480615h-8.47149446z" fill="#fff" fill-rule="evenodd"/></mask><g fill="none" fill-rule="evenodd"><g fill="#fff"><path d="m27.6525846 20.9416841c-.3949245.0667948-.8896961.1241487-1.2796869.1241487-1.7171345 0-2.4449609-.7503205-2.4449609-2.3224769v-4.9560334h-1.4319243v-1.3476975h1.4319243v-2.1076949l1.8122829-.2962102v2.4039051h1.7601275v1.3476975h-1.7601275v4.8028538c0 .8223079.3472329 1.0753257 1.1321482 1.0753257.2189587 0 .4280502-.009441.6423103-.0238385z"/><path d="m30.5933977 20.9511251h-1.8028855v-6.3181284c0-.559141.0237283-1.0465307.071185-1.5627153.9467851-.5350666 2.2215384-.7456001 3.3299582-.7456001.2807465 0 .5424632.009677.789849.0337515l-.14284 1.4430511c-.1902968-.0238384-.4043219-.0335154-.647009-.0335154-.5422282 0-1.1796049.0958258-1.5458674.2867693-.0380593.3441231-.0523903.7599975-.0523903 1.1423565z"/><path d="m38.6193628 16.7073179c-.746856.0285589-1.6125888.0429564-2.3023557.2053409-.8800638.205577-1.1941709.4781848-1.1941709 1.4720821 0 1.0656487.5899199 1.3238591 1.6746114 1.3238591.5518606 0 1.236694-.0431924 1.7695249-.2917258.0380593-.3441231.0523903-.7595254.0523903-1.1418844zm-5.2803824 1.706218c0-1.4862436.6423103-2.4185387 2.2786274-2.666836.932454-.1435026 1.9551229-.1817385 3.001755-.2244589 0-1.1805924-.5138012-1.7732488-1.8028855-1.7732488-1.0132715 0-2.0786983.1050307-2.944666.2150179l-.1473038-1.3285795c.9131895-.1527076 2.0216093-.3106077 3.2632369-.3106077 1.8646732 0 3.4011432.5114642 3.4011432 2.6809975v3.7518386c0 .559141-.0237283 1.0465307-.071185 1.5627154-.9467851.5350665-2.2074423.7456-3.7866704.7456-2.2929584 0-3.1920518-.9032641-3.1920518-2.6524385z"/><path d="m45.501386 13.7298034c-2.2595977 0-2.3025906 1.2473872-2.3025906 2.9632822 0 1.5674359.1094793 2.9772077 2.1313236 2.9772077.5422282 0 1.1798398-.0955898 1.5461023-.2867693.0380594-.3441231.0521554-.7599975.0521554-1.1421205v-4.2725077c-.4184179-.1435026-.9895431-.2390924-1.4269907-.2390924zm1.4269907-4.57815888h1.8031205v9.60594368c0 .559141-.0239633 1.0465307-.0714201 1.5627153-.946785.5350666-2.2215383.7456001-3.3299581.7456001-2.7827963 0-3.9532388-1.0373258-3.9532388-4.372818 0-3.2833308 1.1180521-4.3683335 3.7011543-4.3683335.5899199 0 1.2747533.0908693 1.8503422.2341359z"/><path d="m53.3710024 19.6225692c1.5317714 0 1.9598216-.6738487 1.9598216-2.9295308 0-2.2509615-.4280502-2.9250463-1.9598216-2.9250463-1.5320063 0-1.9504242.578495-1.9504242 2.9250463 0 2.3512718.4184179 2.9295308 1.9504242 2.9295308m0 1.4432872c-2.7733989 0-3.7725743-1.1850769-3.7725743-4.372818 0-3.1827846.9991754-4.3683335 3.7725743-4.3683335s3.7723394 1.2379463 3.7723394 4.3683335c0 3.1348717-.9989405 4.372818-3.7723394 4.372818"/><path d="m61.2043684 19.2307456 2.2405681-6.7911206h1.8313125l-2.6542872 7.4552924c-.2856801.8076743-.7661207 1.1709154-1.4605863 1.1709154-.6944657 0-1.1702076-.3632411-1.4556527-1.1709154l-2.6448899-7.4552924h1.9123649z"/><path d="m70.65817 16.7073179c-.7470909.0285589-1.6125887.0429564-2.3025907.2053409-.8800637.205577-1.1939359.4781848-1.1939359 1.4720821 0 1.0656487.58992 1.3238591 1.6743765 1.3238591.5518606 0 1.2369289-.0431924 1.7695248-.2917258.0380594-.3441231.0526253-.7595254.0526253-1.1418844zm-5.2806173 1.706218c0-1.4862436.6423102-2.4185387 2.2788623-2.666836.9322191-.1435026 1.9551229-.1817385 3.001755-.2244589 0-1.1805924-.5140361-1.7732488-1.8031204-1.7732488-1.0130366 0-2.0786984.1050307-2.9444311.2150179l-.1475387-1.3285795c.9134244-.1527076 2.0218442-.3106077 3.2634718-.3106077 1.8644383 0 3.4011433.5114642 3.4011433 2.6809975v3.7518386c0 .559141-.0237284 1.0465307-.0711851 1.5627154-.9467851.5350665-2.2074423.7456-3.7869054.7456-2.2927234 0-3.1920517-.9032641-3.1920517-2.6524385z"/><path d="m78.3102843 20.9416841c-.3949245.0667948-.8894612.1241487-1.279452.1241487-1.7173695 0-2.4451958-.7503205-2.4451958-2.3224769v-4.9560334h-1.4319243v-1.3476975h1.4319243v-2.1076949l1.8122829-.2962102v2.4039051h1.7603624v1.3476975h-1.7603624v4.8028538c0 .8223079.3474678 1.0753257 1.1323831 1.0753257.2187238 0 .4280502-.009441.6420753-.0238385z"/><path d="m82.1520467 16.2820497c.6230457-.0287949 1.6029565-.1099872 2.1879428-.1914155.0145659-.1097512.0192646-.2865332.0192646-.3965205 0-1.2953001-.4757419-2.0026642-1.8837029-2.0026642-1.7840908 0-2.0265429 1.1329155-2.0265429 2.6717925zm-1.6555817 1.3189025c.0951484 1.6391872.9465501 2.0215462 2.2595977 2.0215462 1.1323831 0 2.169383-.1097512 3.0398144-.2197384l.1522374 1.3524179c-.9181231.1482231-2.0265429.3108437-3.6581614.3108437-2.8398853 0-3.5869762-1.8497206-3.5869762-4.373054 0-3.0874309.9514837-4.3683335 3.7725743-4.3683335 3.0489768 0 3.7009194 1.6155848 3.7009194 4.1533156 0 .2053409-.0049336.4158744-.0239633.6308923-.9705134.1718256-2.9921227.372682-4.1620953.4253154z"/></g><path d="m-.00002349 3.79739127 8.47219926 3.79715525v-7.59454652z" fill="#056dff" mask="url(#a)" transform="translate(0 4.351505)"/><path d="m17.6597264 8.14889626-8.47219931-3.79739128v7.59454652z" fill="#056dff"/><path d="m8.47219926-.00016522-8.47219926 3.79833537 8.47219926 3.7966832z" fill="#056dff" mask="url(#b)" transform="translate(9.707883)"/><path d="m8.47149446 3.79812295-8.47149446-3.79833537v7.59501857z" fill="#056dff" mask="url(#c)" transform="translate(18.895575)"/><path d="m9.70788298 12.4999056 8.47219922 3.7973913v-7.59478258z" fill="#056dff"/><path d="m17.6597264 16.8511273-8.47219931-3.7978633v7.5952546z" fill="#056dff"/><path d="m9.70788298 21.2023727 8.47219922 3.7976273v-7.5950186z" fill="#056dff"/></g></svg>